<svg xmlns="http://www.w3.org/2000/svg" xmlns:xlink="http://www.w3.org/1999/xlink" version="1.1" x="0px" y="0px" viewBox="0 0 100 100" enable-background="new 0 0 100 100" xml:space="preserve"><g><path fill-rule="evenodd" clip-rule="evenodd" d="M93.723,79.467l0.001-0.002l-0.091-0.109L75.234,57.331l-6.822-8.167   c-0.422-0.505-0.909-0.833-1.535-1.037c-3.375-1.094-15.437-5.468-16.833-5.962c-0.17-0.063-0.359-0.084-0.552-0.053   c-0.593,0.097-0.996,0.657-0.898,1.25c0.238,1.457,2.397,14.12,2.874,17.637c0.088,0.652,0.325,1.189,0.747,1.694l6.823,8.168   l18.397,22.024l0.093,0.109l0.001-0.001c2.101,2.395,5.771,2.69,8.229,0.638l7.128-5.954C95.344,85.625,95.706,81.96,93.723,79.467   z M52.071,51.161l5.017-4.19l7.751,2.747l-11.444,9.56L52.071,51.161z M80.178,88.83l-0.209,0.175   c-0.43,0.358-1.074,0.302-1.434-0.128L56.824,62.888c-0.358-0.43-0.3-1.075,0.129-1.434l0.209-0.175   c0.431-0.359,1.075-0.301,1.434,0.129l21.711,25.989C80.666,87.827,80.607,88.472,80.178,88.83z M84.803,84.967l-0.209,0.175   c-0.43,0.358-1.074,0.302-1.434-0.129L61.449,59.024c-0.358-0.43-0.301-1.075,0.129-1.434l0.209-0.175   c0.43-0.359,1.075-0.301,1.434,0.129l21.711,25.988C85.29,83.964,85.232,84.608,84.803,84.967z M89.428,81.104l-0.21,0.175   c-0.43,0.359-1.074,0.301-1.434-0.129l-21.71-25.988c-0.359-0.43-0.301-1.074,0.128-1.434l0.21-0.175   c0.43-0.359,1.074-0.301,1.434,0.128L89.557,79.67C89.915,80.1,89.856,80.744,89.428,81.104z" fill="#fff"></path><path fill-rule="evenodd" clip-rule="evenodd" d="M34.314,38.32l0.003,0.001c1.572-2.609,19.623-6.994,22.972-11.563   c5.111-6.973-14.959-1.028-14.96-1.028c-5.023,1.167-15.549,4.272-23.974,6.416c10.672-5.242,26.41-11.896,30.548-16.951   c8.596-10.501-37.595,1.275-37.91,1.335c12.138-0.093,22.748-3.42,33.875-3.156c0.173,0.004,1.044,0.028,1.689,0.141   c-6.27,7.042-50.566,20.458-39.682,24.854c3.407,1.376,35.207-10.333,46.613-12.067C46.17,30.626,17.48,41.607,43.35,40.331   C43.333,40.328,34.832,39.165,34.314,38.32z" fill="#fff"></path></g></svg>