<svg xmlns="http://www.w3.org/2000/svg" xmlns:xlink="http://www.w3.org/1999/xlink" version="1.1" x="0px" y="0px" viewBox="0 0 100 100" enable-background="new 0 0 100 100" xml:space="preserve"><path fill="#000000" d="M50,36.882c-7.233,0-13.118,5.885-13.118,13.118S42.767,63.118,50,63.118S63.118,57.233,63.118,50  S57.233,36.882,50,36.882z M50,59.118c-5.027,0-9.118-4.09-9.118-9.118s4.09-9.118,9.118-9.118s9.118,4.09,9.118,9.118  S55.027,59.118,50,59.118z"></path><path fill="#000000" d="M82,36.882c-7.233,0-13.118,5.885-13.118,13.118S74.767,63.118,82,63.118S95.118,57.233,95.118,50  S89.233,36.882,82,36.882z M82,59.118c-5.027,0-9.118-4.09-9.118-9.118s4.09-9.118,9.118-9.118s9.118,4.09,9.118,9.118  S87.027,59.118,82,59.118z"></path><path fill="#000000" d="M18,36.882c-7.233,0-13.118,5.885-13.118,13.118S10.767,63.118,18,63.118S31.118,57.233,31.118,50  S25.233,36.882,18,36.882z M18,59.118c-5.027,0-9.118-4.09-9.118-9.118s4.09-9.118,9.118-9.118s9.118,4.09,9.118,9.118  S23.027,59.118,18,59.118z"></path></svg>